<?xml version="1.0" encoding="iso-8859-1"?>
<!-- Uploaded to: SVG Repo, www.svgrepo.com, Generator: SVG Repo Mixer Tools -->
<svg version="1.1" id="Layer_1" xmlns="http://www.w3.org/2000/svg" xmlns:xlink="http://www.w3.org/1999/xlink" 
	 viewBox="0 0 512 512" xml:space="preserve">
<polygon style="fill:#B3592B;" points="473.607,234.767 132.118,203.395 132.118,404.756 473.607,373.384 "/>
<g>
	<rect x="331.672" y="260.075" style="fill:#F39624;" width="54.585" height="31.347"/>
	<rect x="331.672" y="316.729" style="fill:#F39624;" width="54.585" height="31.347"/>
</g>
<rect x="310.774" y="224.235" style="fill:#FBE27B;" width="31.347" height="159.681"/>
<rect x="375.818" y="224.235" style="fill:#F7C02D;" width="31.347" height="159.681"/>
<g>
	<polygon style="fill:#C75214;" points="473.607,373.384 358.967,373.384 338.053,443.151 358.967,512 473.607,512 	"/>
	<polygon style="fill:#C75214;" points="153.033,213.852 38.393,234.767 38.393,373.384 153.033,394.298 	"/>
</g>
<polygon style="fill:#F5A142;" points="18.561,234.767 135.735,234.767 156.65,186.689 135.735,118.91 "/>
<polygon style="fill:#C75214;" points="376.265,118.91 355.35,187.385 376.265,234.767 493.439,234.767 "/>
<polygon style="fill:#F5A142;" points="256,0 164.919,90.056 256,110.97 347.081,90.056 "/>
<polygon style="fill:#E37E31;" points="38.393,373.384 38.393,512 104.835,512 120.508,501.543 136.182,512 169.883,512 
	185.556,501.543 201.23,512 358.967,512 358.967,373.384 201.23,373.384 185.556,383.841 169.883,373.384 136.182,373.384 
	120.508,383.841 104.835,373.384 "/>
<g>
	<rect x="125.733" y="398.691" style="fill:#F39624;" width="54.585" height="31.347"/>
	<rect x="125.733" y="455.346" style="fill:#F39624;" width="54.585" height="31.347"/>
</g>
<polygon style="fill:#E37E31;" points="347.081,90.056 164.919,90.056 135.735,118.91 135.735,234.767 376.265,234.767 
	376.265,118.91 "/>
<rect x="104.835" y="373.384" style="fill:#FBE27B;" width="31.347" height="138.616"/>
<rect x="169.88" y="373.384" style="fill:#F7C02D;" width="31.347" height="138.616"/>
</svg>